
        <svg
    xmlns="http://www.w3.org/2000/svg"
    viewBox="0 0 200 200"
    width="200"
    height="200"
>
    <g fill="none" stroke="black" stroke-width="2">
        <!-- Bicycle Frame -->
        <line x1="50" y1="150" x2="75" y2="100" />
        <line x1="75" y1="100" x2="125" y2="100" />
        <line x1="125" y1="100" x2="150" y2="150" />
        <line x1="75" y1="100" x2="50" y2="150" />
        <line x1="150" y1="150" x2="125" y2="150" />
        <line x1="125" y1="150" x2="100" y2="125" />
        <line x1="100" y1="125" x2="75" y2="150" />

        <!-- Wheels -->
        <circle cx="50" cy="150" r="10" fill="black" />
        <circle cx="150" cy="150" r="10" fill="black" />

        <!-- Pelican Body -->
        <ellipse cx="100" cy="80" rx="20" ry="30" fill="white" />
        
        <!-- Pelican Head -->
        <circle cx="100" cy="50" r="15" fill="white" />
        
        <!-- Pelican Beak -->
        <path d="M100 50 Q120 60 100 70" fill="orange" />
        
        <!-- Pelican Eye -->
        <circle cx="90" cy="50" r="3" fill="black" />

        <!-- Pelican Wings -->
        <path d="M80 80 Q65 70 75 90" fill="white" />
        <path d="M120 80 Q135 70 125 90" fill="white" />
        
        <!-- Pelican Legs -->
        <line x1="90" y1="110" x2="90" y2="130" stroke="orange" />
        <line x1="110" y1="110" x2="110" y2="130" stroke="orange" />
    </g>
</svg>
        