<svg xmlns="http://www.w3.org/2000/svg" width="400" height="400" viewBox="0 0 400 400">
  <defs>
    <g id="wheel">
      <circle cx="0" cy="0" r="30" fill="#ffffff" stroke="#333333" stroke-width="4"/>
      <circle cx="0" cy="0" r="6"  fill="#333333"/>
    </g>
  </defs>

  <!-- Bicycle -->
  <g id="bicycle" transform="translate(100 260)">
    <!-- Wheels -->
    <use href="#wheel" x="0"   y="0"/>
    <use href="#wheel" x="200" y="0"/>
    <!-- Frame -->
    <line x1="0"   y1="0"   x2="80"  y2="-50" stroke="#1976d2" stroke-width="6"/>
    <line x1="80"  y1="-50" x2="200" y2="0"   stroke="#1976d2" stroke-width="6"/>
    <line x1="80"  y1="-50" x2="100" y2="0"   stroke="#1976d2" stroke-width="6"/>
    <line x1="100" y1="0"   x2="50"  y2="-50" stroke="#1976d2" stroke-width="6"/>
    <!-- Seat -->
    <line x1="80" y1="-50" x2="80"  y2="-80" stroke="#1976d2" stroke-width="6"/>
    <rect x="70" y="-90" width="20" height="6" fill="#1976d2"/>
    <!-- Handlebars -->
    <line x1="200" y1="0"   x2="160" y2="-70" stroke="#1976d2" stroke-width="6"/>
    <line x1="160" y1="-70" x2="150" y2="-80" stroke="#1976d2" stroke-width="6"/>
    <line x1="160" y1="-70" x2="170" y2="-80" stroke="#1976d2" stroke-width="6"/>
  </g>

  <!-- Pelican -->
  <g id="pelican" transform="translate(180 180)">
    <!-- Body -->
    <ellipse cx="0" cy="20" rx="35" ry="25" fill="#ffffff" stroke="#000000" stroke-width="2"/>
    <!-- Wing -->
    <path d="M-10,15 C-30,5 -30,35 -10,25" fill="#e0e0e0" stroke="#000000" stroke-width="1"/>
    <!-- Neck & Head -->
    <path d="M-20,0 C-30,-50 20,-60 20,-20" fill="#ffffff" stroke="#000000" stroke-width="2"/>
    <circle cx="20" cy="-20" r="10" fill="#ffffff" stroke="#000000" stroke-width="2"/>
    <circle cx="24" cy="-22" r="2"  fill="#000000"/>
    <!-- Bill -->
    <path d="M30,-15 L60,-10 L50,0 L30,-5 Z" fill="#f4a261" stroke="#000000" stroke-width="1"/>
    <!-- Legs -->
    <line x1="10" y1="45" x2="20" y2="70" stroke="#f4a261" stroke-width="4"/>
    <line x1="10" y1="45" x2="0"  y2="70" stroke="#f4a261" stroke-width="4"/>
    <!-- Feet -->
    <polyline points="20,70 25,75 15,75 20,70" fill="#f4a261"/>
    <polyline points="0,70 5,75 -5,75 0,70" fill="#f4a261"/>
  </g>
</svg>